<svg id="Factesol_logo" data-name="Factesol logo" xmlns="http://www.w3.org/2000/svg" xmlns:xlink="http://www.w3.org/1999/xlink" width="517.46" height="143.956" viewBox="0 0 517.46 143.956">
  <defs>
    <clipPath id="clip-path">
      <path id="Path_16" data-name="Path 16" d="M66.724,1.36a21.763,21.763,0,0,0-5.967,1.3C44.99,8.868,31.989,14,16.262,20.327,7.41,23.884,2.431,30.759,1.325,40.4A21.464,21.464,0,0,0,2.669,50.715a25.953,25.953,0,0,0,1.739,3.477c2.885-4.939,7.31-7.35,11.7-9.681,10.353-5.532,21.22-9.721,32.205-13.752,7.745-2.845,12.764-4.544,20.548-7.31A12.5,12.5,0,0,0,77.2,15.111c2.094-6.678-3-13.791-9.721-13.791a4.782,4.782,0,0,0-.751.04" transform="translate(-1.184 -1.32)"/>
    </clipPath>
    <linearGradient id="linear-gradient" x1="0.092" y1="1.678" x2="0.129" y2="1.678" gradientUnits="objectBoundingBox">
      <stop offset="0" stop-color="#0f84bc"/>
      <stop offset="1" stop-color="#4eaad5"/>
    </linearGradient>
    <clipPath id="clip-path-2">
      <path id="Path_18" data-name="Path 18" d="M72.18,10.29a19.76,19.76,0,0,0-5.967,1.344Q42.563,20.94,18.992,30.4C10.14,33.96,5.161,40.836,4.055,50.478A21.464,21.464,0,0,0,5.4,60.791a23.8,23.8,0,0,0,1.739,3.477c2.885-4.939,7.31-7.35,11.7-9.681,10.353-5.532,21.22-9.721,32.205-13.752,7.745-2.845,15.53-5.651,23.275-8.377a12.5,12.5,0,0,0,8.338-8.338c2.094-6.678-3-13.791-9.721-13.791a4.783,4.783,0,0,0-.751-.04" transform="translate(-3.914 -10.29)"/>
    </clipPath>
    <linearGradient id="linear-gradient-2" x1="-0.006" y1="1.279" x2="0.03" y2="1.279" xlink:href="#linear-gradient"/>
    <clipPath id="clip-path-3">
      <path id="Path_20" data-name="Path 20" d="M17.552,25A11.427,11.427,0,0,0,7.317,34.325a9.326,9.326,0,0,0-.158,2.45A13.58,13.58,0,0,0,7.87,39.7c2.252,6.441,4.584,12.882,6.836,19.323s7.627,7.943,11.46,7.429A11.14,11.14,0,0,0,36.282,56.059a8.8,8.8,0,0,0-.474-3.635c-2.41-6.915-4.821-13.87-7.389-20.706a10.154,10.154,0,0,0-9.839-6.757c-.356,0-.711.04-1.027.04" transform="translate(-7.134 -24.96)"/>
    </clipPath>
    <linearGradient id="linear-gradient-3" x1="-0.322" y1="0.92" x2="-0.246" y2="0.92" xlink:href="#linear-gradient"/>
    <clipPath id="clip-path-4">
      <rect id="Rectangle_21" data-name="Rectangle 21" width="517.46" height="143.956"/>
    </clipPath>
  </defs>
  <g id="Group_17" data-name="Group 17" transform="translate(4.68 5.216)">
    <g id="Group_16" data-name="Group 16" clip-path="url(#clip-path)">
      <path id="Path_15" data-name="Path 15" d="M-2.49,21.3,83.971-4.03,104.44,65.795,17.979,91.164Z" transform="translate(-12.03 -17.111)" fill="url(#linear-gradient)"/>
    </g>
  </g>
  <g id="Group_19" data-name="Group 19" transform="translate(15.468 40.662)">
    <g id="Group_18" data-name="Group 18" clip-path="url(#clip-path-2)">
      <path id="Path_17" data-name="Path 17" d="M.16,30.939,89.426,4.74l20.983,71.642L21.143,102.542Z" transform="translate(-14.996 -26.671)" fill="url(#linear-gradient-2)"/>
    </g>
  </g>
  <g id="Group_21" data-name="Group 21" transform="translate(28.189 98.632)">
    <g id="Group_20" data-name="Group 20" clip-path="url(#clip-path-3)">
      <path id="Path_19" data-name="Path 19" d="M4.24,34.183,42.61,22.96,56.243,69.549,17.912,80.772Z" transform="translate(-15.674 -30.863)" fill="url(#linear-gradient-3)"/>
    </g>
  </g>
  <g id="Group_30" data-name="Group 30">
    <g id="Group_22" data-name="Group 22" clip-path="url(#clip-path-4)">
      <path id="Path_21" data-name="Path 21" d="M35.363,78.661a3,3,0,0,1-3-3V13.026a7.428,7.428,0,0,1,2.252-5.453A7.428,7.428,0,0,1,40.066,5.32H82.7a2.96,2.96,0,0,1,2.964,2.964v6.6a2.994,2.994,0,0,1-2.964,3H50.3a2.994,2.994,0,0,0-3,2.964v9.8a2.968,2.968,0,0,0,3,2.964H72.9a3,3,0,0,1,3,3v1.9A7.69,7.69,0,0,1,68.2,46.219H50.3a3,3,0,0,0-3,3V75.658a2.994,2.994,0,0,1-2.964,3Z" transform="translate(95.513 15.702)" fill="#d72250"/>
    </g>
    <g id="Group_23" data-name="Group 23" clip-path="url(#clip-path-4)">
      <path id="Path_22" data-name="Path 22" d="M83.84,64.789a26.151,26.151,0,0,1-9.484,2.885,84.786,84.786,0,0,1-8.852.553,22.325,22.325,0,0,1-13.435-4.149c-3.833-2.766-5.769-7.35-5.769-13.752,0-5.967,1.739-10.235,5.216-12.764a30.061,30.061,0,0,1,13.119-5.1c.119-.04.237,0,.4-.04,1.225-.119.988-.119,2.371-.316.988-.158,2.134-.4,3.4-.553,6.244-.869,9.365-2.687,9.365-5.532a4.028,4.028,0,0,0-3.319-4.149,22.226,22.226,0,0,0-6.085-.948,15.111,15.111,0,0,0-5.335.869,5.468,5.468,0,0,0-2.648,1.936A3.033,3.033,0,0,1,60.328,25H51.516a2.986,2.986,0,0,1-2.845-3.952A16.113,16.113,0,0,1,53.65,14.13c3.833-3.28,9.286-4.9,16.4-4.9q11.914,0,17.9,4.031a13.714,13.714,0,0,1,6.164,11.934V44.6c0,5.69-1.027,10.116-3.082,13.317a17.85,17.85,0,0,1-7.192,6.876m-3.4-21.852a2.962,2.962,0,0,0-3.873-2.845c-1.3.435-2.806.83-4.465,1.225l-4.9,1.067a13.446,13.446,0,0,0-5.177,2.45,2.9,2.9,0,0,0-.632.751,8.376,8.376,0,0,0-1.225,4.268,6.76,6.76,0,0,0,1.936,5.1,8,8,0,0,0,5.532,1.7c3.991,0,7.113-1.146,9.365-3.4,2.252-2.292,3.4-5.414,3.4-9.365v-.948Z" transform="translate(136.658 27.243)" fill="#d72250"/>
    </g>
    <g id="Group_24" data-name="Group 24" clip-path="url(#clip-path-4)">
      <path id="Path_23" data-name="Path 23" d="M100.461,49.714h6.481a2.99,2.99,0,0,1,2.727,4.189,22.023,22.023,0,0,1-7.508,9.444c-4.426,3.28-9.958,4.9-16.636,4.9-8.1,0-14.423-2.608-18.968-7.9-4.544-5.1-6.836-12.447-6.836-21.931q0-13.633,6.6-21.3,6.817-7.883,18.968-7.9,12.8,0,19.837,7.666a29.781,29.781,0,0,1,4.031,6.639,3.012,3.012,0,0,1-2.727,4.268h-8.97a3.02,3.02,0,0,1-2.529-1.423,11.567,11.567,0,0,0-1.344-1.778c-1.857-1.976-4.465-3-7.9-3a10.27,10.27,0,0,0-7.666,3c-2.569,2.845-3.833,7.508-3.833,14.068,0,6.52,1.265,11.143,3.833,13.831,1.857,2.252,4.623,3.4,8.3,3.4a12.072,12.072,0,0,0,6.164-1.5,3.175,3.175,0,0,0,1.185-.751L94.85,52.44a8.338,8.338,0,0,1,1.7-1.7,6.58,6.58,0,0,1,3.912-1.027" transform="translate(176.269 27.184)" fill="#d72250"/>
    </g>
    <g id="Group_25" data-name="Group 25" clip-path="url(#clip-path-4)">
      <path id="Path_24" data-name="Path 24" d="M97.323,75.816a2.963,2.963,0,0,1-2.845,2.964,110.844,110.844,0,0,1-12.368-.356c-5.493-.435-8.219-3.912-8.219-10.432V8.323a3,3,0,0,1,3-3h4.7a6.716,6.716,0,0,1,4.9,2.134,6.957,6.957,0,0,1,2.134,5.1v6.6a3,3,0,0,0,3,3H94.4a2.994,2.994,0,0,1,3,2.964,6.851,6.851,0,0,1-2.134,5.216,7.166,7.166,0,0,1-5.1,2.015h-1.5V63.882c0,2.41,1.423,3.635,4.268,3.635h1.5a3,3,0,0,1,3,3v5.3Z" transform="translate(218.093 15.702)" fill="#d72250"/>
    </g>
    <g id="Group_26" data-name="Group 26" clip-path="url(#clip-path-4)">
      <path id="Path_25" data-name="Path 25" d="M121.161,49.684h6.481a2.99,2.99,0,0,1,2.727,4.189,22.023,22.023,0,0,1-7.508,9.444c-4.386,3.28-9.958,4.9-16.636,4.9q-12.151,0-18.968-7.9c-4.544-5.1-6.836-12.447-6.836-21.931q0-13.633,6.6-21.3Q93.836,9.2,105.987,9.22q12.8,0,19.837,7.666,6.816,7.883,6.836,21.971v2.371c0,.711,0,1.462-.948,1.5H98.874a3,3,0,0,0-2.924,3.556,11.921,11.921,0,0,0,2.845,6.244c1.857,2.252,4.623,3.4,8.3,3.4a12.072,12.072,0,0,0,6.164-1.5,3.175,3.175,0,0,0,1.185-.751l1.185-1.185a4.779,4.779,0,0,1,1.581-1.7,6.187,6.187,0,0,1,3.952-1.106M99.032,33.048H113.85a2.993,2.993,0,0,0,2.924-3.635,10.816,10.816,0,0,0-2.41-4.86c-1.857-1.976-4.465-2.964-7.9-2.964a10.11,10.11,0,0,0-10.353,7.824,2.955,2.955,0,0,0,2.924,3.635" transform="translate(237.367 27.214)" fill="#147dba"/>
    </g>
    <g id="Group_27" data-name="Group 27" clip-path="url(#clip-path-4)">
      <path id="Path_26" data-name="Path 26" d="M94.52,48.41h12.052a2.945,2.945,0,0,1,2.806,2.252,7.345,7.345,0,0,0,2.845,4.149,15.169,15.169,0,0,0,8.535,2.134,13.683,13.683,0,0,0,6.6-1.5,4.527,4.527,0,0,0,2.569-4.031c0-2.569-2.964-4.465-8.931-5.769a48.89,48.89,0,0,1-5.769-1.265c-7.548-1.857-12.566-4.031-15.135-6.6a13.1,13.1,0,0,1-4.268-10.235,17,17,0,0,1,6.164-13.435c4.268-3.28,9.8-4.9,16.636-4.9,7.389,0,13.277,1.62,17.7,4.9a18.414,18.414,0,0,1,6.125,10.156,2.991,2.991,0,0,1-2.924,3.675h-5.769a6.676,6.676,0,0,1-6.164-3.635l-1.5-1.5a3.935,3.935,0,0,0-.435-.4,11.941,11.941,0,0,0-6.8-1.739,12.974,12.974,0,0,0-6.4,1.265,4.369,4.369,0,0,0-1.936,3.833c0,2.292,3.675,4.189,11.064,5.769a16.62,16.62,0,0,0,2.252.632,7.314,7.314,0,0,0,1.818.2c7.231,1.857,12.289,3.991,15.135,6.4A13.508,13.508,0,0,1,144.863,49c0,6.244-2.292,11.064-6.836,14.5q-6.4,4.683-19.165,4.7c-8.1,0-14.147-1.62-18.1-4.9-4.11-3.28-6.164-8.022-6.164-14.265V48.41Z" transform="translate(278.984 27.184)" fill="#147dba"/>
    </g>
    <g id="Group_28" data-name="Group 28" clip-path="url(#clip-path-4)">
      <path id="Path_27" data-name="Path 27" d="M116.448,62.084a21.516,21.516,0,0,1-6.4-10.314,48.229,48.229,0,0,1-1.936-13.554,42.681,42.681,0,0,1,1.581-11.5,23.692,23.692,0,0,1,5.018-9.6,21.91,21.91,0,0,1,14.265-7.548,32.835,32.835,0,0,1,15.767,1.383,21.693,21.693,0,0,1,11.934,11.064,35.441,35.441,0,0,1,3.635,16.4,40.926,40.926,0,0,1-1.5,11.736,29.927,29.927,0,0,1-3.833,8.3,21.242,21.242,0,0,1-13,8.733,29.21,29.21,0,0,1-14.186.316,24.354,24.354,0,0,1-11.341-5.414m10.235-37.5q-4.5,4.92-4.031,14.581c.277,6.481,1.5,10.985,3.635,13.514a9.4,9.4,0,0,0,4.465,2.885,9.964,9.964,0,0,0,6.52.2,10.878,10.878,0,0,0,5.848-4.781c1.7-2.569,2.608-6.678,2.766-12.368,0-5.137-.83-8.97-2.45-11.5a10.975,10.975,0,0,0-5.651-4.9,10.424,10.424,0,0,0-6.4-.119,11.1,11.1,0,0,0-4.7,2.49" transform="translate(319.096 27.143)" fill="#147dba"/>
    </g>
    <g id="Group_29" data-name="Group 29" clip-path="url(#clip-path-4)">
      <path id="Path_28" data-name="Path 28" d="M122.69,8.294a2.96,2.96,0,0,1,2.964-2.964h4.7a7.1,7.1,0,0,1,5.1,2.015,6.6,6.6,0,0,1,2.134,5.019v63.3a2.994,2.994,0,0,1-2.964,3h-8.931a2.968,2.968,0,0,1-2.964-3V8.294Z" transform="translate(362.13 15.732)" fill="#147dba"/>
    </g>
  </g>
  <text id="MÁS_QUE_FACTURACIÓN_ELECTRÓNICA" data-name="MÁS QUE FACTURACIÓN ELECTRÓNICA" transform="translate(126.296 125.322)" fill="#147dba" font-size="23" font-family="Geogrotesque-SemiBold, Geogrotesque" font-weight="600"><tspan x="0" y="0">MÁS QUE FACTURACIÓN ELECTRÓNICA</tspan></text>
</svg>
